<?xml version="1.0" standalone="no"?><!DOCTYPE svg PUBLIC "-//W3C//DTD SVG 1.1//EN" "http://www.w3.org/Graphics/SVG/1.1/DTD/svg11.dtd"><svg t="1754188527379" class="icon" viewBox="0 0 1344 1024" version="1.1" xmlns="http://www.w3.org/2000/svg" p-id="7694" xmlns:xlink="http://www.w3.org/1999/xlink" width="262.5" height="200"><path d="M1328.026 320c-8.827 0-15.995 7.168-15.995 15.995v640c0 8.827-7.168 15.995-15.995 15.995H48.026c-8.827 0-15.995-7.168-15.995-15.995v-640c0-8.827-7.168-15.995-15.995-15.995S0.04 327.168 0.04 335.995v640c0 26.46 21.545 48.005 48.005 48.005h1248.01c26.46 0 48.005-21.545 48.005-48.005v-640c0-8.827-7.168-15.995-15.994-15.995z m-32.01-320H48.005C21.544 0 0 21.545 0 48.005v192C0 248.832 7.168 256 15.995 256h1312.01c8.827 0 15.995-7.168 15.995-15.995v-192C1344 21.545 1322.455 0 1295.995 0z m16.015 224.01h-1280V48.005c0-8.827 7.168-15.995 15.995-15.995h1248.01c8.827 0 15.995 7.168 15.995 15.995V224.01zM560.026 896c8.826 0 15.994-7.168 15.994-15.995v-512c0-8.827-7.168-15.995-15.994-15.995h-416.01c-8.828 0-15.996 7.168-15.996 15.995v512c0 8.827 7.168 15.995 15.995 15.995h416.01zM160.03 384h384v480.01h-384V384z m559.984 96.01h480.01c8.827 0 15.995-7.168 15.995-15.995s-7.168-15.995-15.994-15.995h-480.01c-8.828 0-15.996 7.168-15.996 15.995s7.168 15.995 15.995 15.995z m0 159.99h480.01c8.827 0 15.995-7.168 15.995-15.995s-7.168-15.995-15.994-15.995h-480.01c-8.828 0-15.996 7.168-15.996 15.995S711.188 640 720.015 640z m0 160.01h480.01c8.827 0 15.995-7.168 15.995-15.995s-7.168-15.995-15.994-15.995h-480.01c-8.828 0-15.996 7.168-15.996 15.995s7.168 15.995 15.995 15.995zM96.031 128c0 17.674 14.336 32.01 32.01 32.01s32.01-14.336 32.01-32.01-14.336-32.01-32.01-32.01-32.01 14.336-32.01 32.01z m128 0c0 17.674 14.336 32.01 32.01 32.01s32.01-14.336 32.01-32.01-14.336-32.01-32.01-32.01-32.01 14.336-32.01 32.01z m128 0c0 17.674 14.336 32.01 32.01 32.01s32.01-14.336 32.01-32.01-14.336-32.01-32.01-32.01-32.01 14.336-32.01 32.01z" fill="#272636" p-id="7695"></path></svg>